<svg width="1440" height="640" fill="none" xmlns="http://www.w3.org/2000/svg"><g clip-path="url(#bg-home__a)"><g filter="url(#bg-home__b)"><mask id="bg-home__d" fill="#fff"><path d="M2085.4-205.64c17.08 94.492-297.46 263.145-702.55 376.697C977.762 284.61 635.522 300.062 618.438 205.57c-17.083-94.492 297.459-263.145 702.552-376.698 405.09-113.552 747.33-129.004 764.41-34.512Z"/></mask><path d="M2085.4-205.64c17.08 94.492-297.46 263.145-702.55 376.697C977.762 284.61 635.522 300.062 618.438 205.57c-17.083-94.492 297.459-263.145 702.552-376.698 405.09-113.552 747.33-129.004 764.41-34.512Z" fill="url(#bg-home__c)"/><path d="M2084.42-205.462c2.08 11.509-.87 24.241-8.56 37.992-7.69 13.752-20.07 28.454-36.74 43.85-33.32 30.791-83.62 64.233-147.15 98.3-127.06 68.125-306.89 138.652-509.39 195.415l.54 1.925c202.6-56.79 382.58-127.366 509.79-195.578 63.61-34.102 114.07-67.638 147.57-98.593 16.75-15.477 29.3-30.342 37.13-44.343 7.82-14.002 10.97-27.211 8.78-39.324l-1.97.356Zm-701.84 375.557c-202.49 56.762-389.248 88.995-527.482 95.236-69.127 3.121-126.058-.261-166.739-10.293-40.784-10.057-64.783-26.671-68.937-49.646l-1.968.356c4.388 24.271 29.575 41.159 70.426 51.232 40.952 10.099 98.103 13.474 167.308 10.349 138.429-6.25 325.342-38.519 527.932-95.309l-.54-1.925Zm-763.158 35.297c-2.08-11.51.87-24.241 8.557-37.993 7.687-13.752 20.074-28.453 36.738-43.849 33.327-30.792 83.619-64.234 147.153-98.3 127.056-68.126 306.89-138.653 509.39-195.415l-.54-1.926C1118.12-115.3 938.142-44.725 810.925 23.487 747.323 57.59 696.864 91.125 663.36 122.081c-16.752 15.477-29.3 30.341-37.127 44.342-7.827 14.002-10.969 27.211-8.779 39.325l1.968-.356Zm701.838-375.557c202.49-56.762 389.25-88.995 527.48-95.237 69.13-3.121 126.06.262 166.74 10.293 40.78 10.057 64.78 26.672 68.94 49.647l1.97-.356c-4.39-24.271-29.58-41.159-70.43-51.233-40.95-10.098-98.1-13.473-167.31-10.349-138.43 6.25-325.34 38.519-527.93 95.309l.54 1.926Z" fill="#000" mask="url(#bg-home__d)"/></g><g filter="url(#bg-home__e)"><path d="M1629.49-183.44c0 181.311-337.91 328.293-754.746 328.293C457.91 144.853 120-2.129 120-183.44s337.91-328.293 754.744-328.293c416.836 0 754.746 146.982 754.746 328.293Z" fill="#2B3232"/></g><g filter="url(#bg-home__f)"><ellipse rx="501.516" ry="116.918" transform="matrix(.99987 .01629 -.01231 .99992 1526.2 -40.567)" fill="url(#bg-home__g)"/><path d="M2027.15-32.407c-.09 7.916-3.63 15.628-10.35 23.068-6.72 7.443-16.61 14.592-29.35 21.363-25.49 13.543-62.31 25.529-107.79 35.364-90.96 19.668-216.45 30.71-354.89 28.455-138.44-2.255-263.61-17.38-354.04-40.003-45.23-11.313-81.74-24.493-106.88-38.86-12.58-7.184-22.28-14.652-28.82-22.311-6.53-7.656-9.87-15.48-9.78-23.396.1-7.916 3.64-15.627 10.35-23.068 6.72-7.443 16.61-14.591 29.36-21.363 25.49-13.542 62.31-25.528 107.79-35.363 90.96-19.668 216.44-30.711 354.89-28.455 138.44 2.255 263.6 17.38 354.04 40.003 45.22 11.312 81.73 24.493 106.88 38.86 12.57 7.184 22.28 14.651 28.82 22.31 6.53 7.657 9.87 15.48 9.77 23.396Z" stroke="#000"/></g></g><defs><filter id="bg-home__b" x="467.774" y="-417.523" width="1768.29" height="834.976" filterUnits="userSpaceOnUse" color-interpolation-filters="sRGB"><feFlood flood-opacity="0" result="BackgroundImageFix"/><feBlend in="SourceGraphic" in2="BackgroundImageFix" result="shape"/><feGaussianBlur stdDeviation="75" result="effect1_foregroundBlur_100_324"/></filter><filter id="bg-home__e" x="-380" y="-1011.73" width="2509.49" height="1656.59" filterUnits="userSpaceOnUse" color-interpolation-filters="sRGB"><feFlood flood-opacity="0" result="BackgroundImageFix"/><feBlend in="SourceGraphic" in2="BackgroundImageFix" result="shape"/><feGaussianBlur stdDeviation="250" result="effect1_foregroundBlur_100_324"/></filter><filter id="bg-home__f" x="874.752" y="-307.766" width="1302.9" height="534.399" filterUnits="userSpaceOnUse" color-interpolation-filters="sRGB"><feFlood flood-opacity="0" result="BackgroundImageFix"/><feBlend in="SourceGraphic" in2="BackgroundImageFix" result="shape"/><feGaussianBlur stdDeviation="75" result="effect1_foregroundBlur_100_324"/></filter><radialGradient id="bg-home__c" cx="0" cy="0" r="1" gradientUnits="userSpaceOnUse" gradientTransform="matrix(0 268.281 -734.146 0 1352.297 -.537)"><stop stop-color="#FF9AD7"/><stop offset=".255" stop-color="#FDDD35"/><stop offset=".495" stop-color="#FFF6C9"/><stop offset="1" stop-color="#FDDD35" stop-opacity="0"/></radialGradient><radialGradient id="bg-home__g" cx="0" cy="0" r="1" gradientUnits="userSpaceOnUse" gradientTransform="scale(501.516 117.265) rotate(90 .003 .997)"><stop offset=".255" stop-color="#F4E074"/><stop offset=".755" stop-color="#FDDD35" stop-opacity="0"/></radialGradient><clipPath id="bg-home__a"><path fill="#fff" d="M0 0h1440v640H0z"/></clipPath></defs></svg>